<svg version="1.1" id="Layer_1" xmlns="http://www.w3.org/2000/svg" xmlns:xlink="http://www.w3.org/1999/xlink" x="0px" y="0px" width="100%" viewBox="0 0 512 512" enable-background="new 0 0 512 512" xml:space="preserve">

<path fill="#000000" opacity="1.000000" stroke="none" d="
M513.000000,308.000000 
	C513.000000,376.295471 513.000000,444.590942 513.000000,512.943237 
	C342.333344,512.943237 171.666672,512.943237 1.000000,512.943237 
	C1.000000,488.910828 1.000000,464.924072 1.300999,440.171265 
	C4.032893,440.604675 6.347949,442.427338 8.913156,442.904175 
	C27.923763,446.437744 46.993736,449.650116 66.026062,453.069214 
	C84.094246,456.315063 102.131264,459.734192 120.197159,462.993042 
	C135.559830,465.764282 150.956604,468.347168 166.315155,471.140594 
	C180.216446,473.668976 194.077591,476.417480 207.972717,478.980560 
	C222.514023,481.662903 237.053940,484.364594 251.638077,486.796265 
	C256.832642,487.662384 262.219330,488.496735 267.404266,488.042786 
	C275.618286,487.323639 280.931946,480.817780 287.210663,476.340271 
	C315.267731,456.332031 343.270447,436.247437 371.353455,416.275665 
	C396.120728,398.661926 420.876770,381.029480 445.830444,363.682404 
	C454.454498,357.687164 457.953186,349.623871 457.997131,339.565094 
	C458.026978,332.736298 458.039459,325.907410 458.422791,318.898804 
	C464.217163,317.812683 469.708557,317.169495 475.067841,315.947205 
	C487.667023,313.073700 501.001648,313.708252 513.000000,308.000000 
z" data-index="1" style="opacity: 1; visibility: hidden;"></path>
<path fill="#FBAC10" opacity="1.000000" stroke="none" d="
M458.059692,319.078583 
	C458.039459,325.907410 458.026978,332.736298 457.997131,339.565094 
	C457.953186,349.623871 454.454498,357.687164 445.830444,363.682404 
	C420.876770,381.029480 396.120728,398.661926 371.353455,416.275665 
	C343.270447,436.247437 315.267731,456.332031 287.210663,476.340271 
	C280.931946,480.817780 275.618286,487.323639 267.404266,488.042786 
	C262.219330,488.496735 256.832642,487.662384 251.638077,486.796265 
	C237.053940,484.364594 222.514023,481.662903 207.972717,478.980560 
	C194.077591,476.417480 180.216446,473.668976 166.315155,471.140594 
	C150.956604,468.347168 135.559830,465.764282 120.197159,462.993042 
	C102.131264,459.734192 84.094246,456.315063 66.026062,453.069214 
	C46.993736,449.650116 27.923763,446.437744 8.913156,442.904175 
	C6.347949,442.427338 4.032893,440.604675 1.300999,439.702637 
	C1.000000,436.638702 1.000000,433.277435 1.300617,429.755035 
	C4.064887,426.683716 7.163817,425.370087 11.349893,426.011536 
	C12.678975,426.417664 13.626423,426.745544 14.601322,426.919983 
	C53.070087,433.803162 91.544632,440.654083 130.011429,447.548218 
	C173.392426,455.323059 216.763596,463.152679 260.147736,470.909912 
	C265.906006,471.939484 267.926025,470.483093 267.964752,464.552338 
	C268.108276,442.563293 268.156006,420.570618 267.892120,398.583466 
	C267.799988,390.904297 264.025879,387.226990 256.580475,385.878418 
	C249.543243,384.603821 242.513504,383.287842 235.474396,382.023895 
	C183.912033,372.765350 132.352661,363.489929 80.782608,354.274261 
	C57.872749,350.180206 34.940350,346.212311 11.608252,342.106018 
	C7.798882,341.016602 4.399443,340.008301 1.000002,339.000000 
	C1.000000,335.307098 1.000000,331.614166 0.999997,327.460632 
	C2.742329,326.331787 4.484664,325.663605 7.037825,324.977295 
	C9.509980,325.045258 11.203228,324.952789 12.827993,325.243286 
	C59.207043,333.536316 105.582939,341.847198 151.951340,350.199615 
	C189.825043,357.021820 227.684052,363.925995 265.571930,370.668152 
	C267.162872,370.951263 269.305328,370.426453 270.641785,369.492401 
	C283.170258,360.736481 295.578827,351.808899 308.016541,342.971252 
	C308.011047,343.011505 307.930084,343.004547 308.115051,342.918365 
	C308.552795,342.705627 308.738373,342.513977 309.276794,342.170288 
	C320.172180,340.383179 330.646973,338.679810 341.122864,336.983582 
	C371.236084,332.107697 401.338165,327.160980 431.470520,322.406250 
	C440.289032,321.014740 449.194214,320.172546 458.059692,319.078583 
z" data-index="2" style="opacity: 1;"></path>
<path fill="#E63532" opacity="1.000000" stroke="none" d="
M458.422760,318.898804 
	C449.194214,320.172546 440.289032,321.014740 431.470520,322.406250 
	C401.338165,327.160980 371.236084,332.107697 341.122864,336.983582 
	C330.646973,338.679810 320.172180,340.383179 309.051880,342.196289 
	C308.062286,342.413605 307.903351,342.645386 307.930084,343.004547 
	C307.930084,343.004547 308.011047,343.011505 307.575531,342.897949 
	C290.713379,345.281097 274.236908,347.496338 257.880829,350.391571 
	C249.515305,351.872375 242.440018,350.595337 235.218704,345.898499 
	C197.825195,321.577179 160.222290,297.577301 122.645012,273.539398 
	C116.223412,269.431549 109.572418,265.682251 103.027397,261.767334 
	C90.885857,253.922546 78.831894,245.937439 66.570267,238.285095 
	C59.098804,233.622223 56.128956,226.772217 56.046555,218.470367 
	C55.888176,202.514389 55.930191,186.555206 56.046204,170.598511 
	C56.075977,166.503036 56.691788,162.411804 57.428879,157.969040 
	C59.804100,158.825485 61.808434,160.000519 63.770622,161.242142 
	C101.392311,185.048599 139.030289,208.829437 176.600403,232.717056 
	C181.400436,235.768967 186.255829,236.477386 191.793350,235.513031 
	C202.089752,233.719971 212.459579,232.348618 223.015610,231.085571 
	C228.252304,234.616241 233.375000,237.716873 238.261826,241.152985 
	C242.705734,244.277649 247.122787,245.776733 252.666260,244.144394 
	C256.914215,242.893555 261.472595,242.712158 265.883331,241.996292 
	C289.087799,238.230179 312.293793,234.472855 335.490540,230.659668 
	C360.972992,226.470779 386.442291,222.202179 411.924194,218.010040 
	C433.811127,214.409348 455.700714,210.823624 477.603271,207.319595 
	C487.407990,205.751007 497.247253,204.398392 507.070862,202.947769 
	C508.859589,204.151917 510.648346,205.356064 512.718506,206.280106 
	C513.000000,209.361282 513.000000,212.722580 512.684204,216.277191 
	C508.941528,217.991867 505.514679,219.513245 501.834473,220.776093 
	C496.659576,221.197678 491.723328,221.786316 486.818726,222.572464 
	C450.693329,228.362885 414.573181,234.186417 378.453430,240.011948 
	C338.064301,246.526062 297.671265,253.016205 257.294098,259.603668 
	C248.474808,261.042542 245.999176,264.233490 245.964951,273.409607 
	C245.925812,283.902161 245.939026,294.394928 245.938248,304.887604 
	C245.937653,312.881866 245.815781,320.879578 246.019699,328.868805 
	C246.109818,332.399139 246.985596,335.464111 251.958389,334.647095 
	C283.298676,329.498016 314.661224,324.484344 346.016388,319.425751 
	C386.080475,312.962158 426.148621,306.523560 466.206116,300.019348 
	C478.171844,298.076447 490.107758,295.949768 502.479370,293.945190 
	C506.267609,294.988739 509.633820,295.994354 513.000000,297.000000 
	C513.000000,300.361298 513.000000,303.722565 513.000000,307.541931 
	C501.001648,313.708252 487.667023,313.073700 475.067841,315.947205 
	C469.708557,317.169495 464.217163,317.812683 458.422760,318.898804 
z" data-index="3" style="opacity: 1;"></path>

<path fill="#000000" opacity="1.000000" stroke="none" d="
M502.087799,221.034622 
	C505.514679,219.513245 508.941528,217.991867 512.684204,216.735260 
	C513.000000,243.354233 513.000000,269.708466 513.000000,296.531342 
	C509.633820,295.994354 506.267609,294.988739 502.453339,293.534485 
	C500.330231,283.380005 498.775360,273.651520 496.952362,263.973541 
	C494.149567,249.093781 496.936066,234.935516 502.087799,221.034622 
z" data-index="5" style="opacity: 1; visibility: hidden;"></path>
<path fill="#02A9F4" opacity="1.000000" stroke="none" d="
M43.872940,58.865437 
	C51.181656,57.577110 58.487179,56.270336 65.799828,55.004742 
	C77.010048,53.064598 88.215057,51.091297 99.441071,49.246372 
	C110.530258,47.423931 121.651306,45.795742 132.742874,43.987289 
	C146.389542,41.762245 160.009155,39.370129 173.660889,37.177429 
	C187.008057,35.033657 200.385803,33.080986 213.740952,30.985931 
	C224.195892,29.345835 234.619064,27.488459 245.098907,26.034229 
	C247.199738,25.742706 249.789459,26.312136 251.650665,27.369854 
	C269.279633,37.388351 286.796875,47.603405 304.351990,57.752018 
	C325.671112,70.076591 346.982025,82.415436 368.324402,94.699661 
	C377.440033,99.946457 386.626221,105.070763 395.670166,110.855980 
	C385.249786,113.083298 374.929413,114.643303 364.631409,116.339264 
	C335.187286,121.188370 305.752502,126.094269 276.313538,130.974808 
	C248.674026,135.557053 221.052917,140.256851 193.376114,144.601669 
	C188.492386,145.368347 182.441406,146.383865 178.537643,144.288437 
	C166.114777,137.620178 154.446991,129.544067 142.494751,122.000389 
	C117.604149,106.290649 92.686638,90.623177 67.848457,74.830948 
	C59.747688,69.680443 51.858757,64.196747 43.872940,58.865437 
z" data-index="6"></path>
<path fill="#016AB3" opacity="1.000000" stroke="none" d="
M43.505196,58.911613 
	C51.858757,64.196747 59.747688,69.680443 67.848457,74.830948 
	C92.686638,90.623177 117.604149,106.290649 142.494751,122.000389 
	C154.446991,129.544067 166.114777,137.620178 178.537643,144.288437 
	C182.441406,146.383865 188.492386,145.368347 193.376114,144.601669 
	C221.052917,140.256851 248.674026,135.557053 276.313538,130.974808 
	C305.752502,126.094269 335.187286,121.188370 364.631409,116.339264 
	C374.929413,114.643303 385.249786,113.083298 395.840393,111.166588 
	C402.193146,113.197418 404.812775,116.769798 403.962463,121.565620 
	C403.177612,125.992188 399.056671,128.754517 391.998230,129.009811 
	C381.958191,130.407394 372.738647,131.762344 363.540680,133.250565 
	C306.870544,142.419693 250.205933,151.622681 193.537643,160.803162 
	C186.455322,161.950531 184.960556,163.624359 184.937012,170.964066 
	C184.891541,185.128250 184.888092,199.292618 184.905960,213.456879 
	C184.908188,215.220322 185.145569,216.983475 185.299194,219.092987 
	C187.330063,218.919601 188.804535,218.887131 190.247498,218.656982 
	C239.546448,210.794586 288.846252,202.937317 338.136749,195.022232 
	C355.862976,192.175751 373.565765,189.183609 391.685059,186.274017 
	C398.885040,185.817245 402.656250,188.218903 403.182495,193.353668 
	C403.711121,198.511658 400.789917,201.817062 394.521820,202.827576 
	C352.503174,209.601578 310.472626,216.301758 268.457703,223.098740 
	C253.221451,225.563599 238.017517,228.228226 222.798843,230.801697 
	C212.459579,232.348618 202.089752,233.719971 191.793350,235.513031 
	C186.255829,236.477386 181.400436,235.768967 176.600403,232.717056 
	C139.030289,208.829437 101.392311,185.048599 63.770622,161.242142 
	C61.808434,160.000519 59.804100,158.825485 57.467323,157.505783 
	C49.081657,152.421432 40.688011,147.924683 33.199783,142.236084 
	C30.385405,140.098083 28.338486,135.233795 28.228800,131.544403 
	C27.715908,114.293060 27.932356,97.017601 28.028778,79.751534 
	C28.080833,70.430054 34.615562,61.628700 43.505196,58.911613 
z" data-index="7"></path>
<path fill="#FEF2E4" opacity="1.000000" stroke="none" d="
M391.279266,186.257935 
	C373.565765,189.183609 355.862976,192.175751 338.136749,195.022232 
	C288.846252,202.937317 239.546448,210.794586 190.247498,218.656982 
	C188.804535,218.887131 187.330063,218.919601 185.299194,219.092987 
	C185.145569,216.983475 184.908188,215.220322 184.905960,213.456879 
	C184.888092,199.292618 184.891541,185.128250 184.937012,170.964066 
	C184.960556,163.624359 186.455322,161.950531 193.537643,160.803162 
	C250.205933,151.622681 306.870544,142.419693 363.540680,133.250565 
	C372.738647,131.762344 381.958191,130.407394 391.588593,129.061035 
	C391.327667,130.753922 390.645905,132.376633 389.625000,134.591675 
	C388.838501,136.432617 388.364197,137.672318 387.947906,138.931213 
	C382.580688,155.161362 385.727783,170.794800 391.279266,186.257935 
z" data-index="8"></path>
<path fill="#F4D177" opacity="1.000000" stroke="none" d="
M102.669403,261.873169 
	C109.572418,265.682251 116.223412,269.431549 122.645012,273.539398 
	C160.222290,297.577301 197.825195,321.577179 235.218704,345.898499 
	C242.440018,350.595337 249.515305,351.872375 257.880829,350.391571 
	C274.236908,347.496338 290.713379,345.281097 307.581055,342.857666 
	C295.578827,351.808899 283.170258,360.736481 270.641785,369.492401 
	C269.305328,370.426453 267.162872,370.951263 265.571930,370.668152 
	C227.684052,363.925995 189.825043,357.021820 151.951340,350.199615 
	C105.582939,341.847198 59.207043,333.536316 12.827993,325.243286 
	C11.203228,324.952789 9.509980,325.045258 7.410536,324.919861 
	C14.829967,319.572998 22.632101,314.181122 30.555420,308.973663 
	C54.448792,293.270294 78.389290,277.638611 102.669403,261.873169 
z" data-index="9"></path>
<path fill="#FE6666" opacity="1.000000" stroke="none" d="
M391.685059,186.274017 
	C385.727783,170.794800 382.580688,155.161362 387.947906,138.931213 
	C388.364197,137.672318 388.838501,136.432617 389.579926,134.935257 
	C401.702759,141.410889 413.567230,148.073318 425.351257,154.875092 
	C440.494812,163.615982 455.590759,172.439804 470.674866,181.283142 
	C481.431854,187.589661 492.130432,193.995850 502.869843,200.332550 
	C504.122925,201.071915 505.470123,201.651764 506.922272,202.626663 
	C497.247253,204.398392 487.407990,205.751007 477.603271,207.319595 
	C455.700714,210.823624 433.811127,214.409348 411.924194,218.010040 
	C386.442291,222.202179 360.972992,226.470779 335.490540,230.659668 
	C312.293793,234.472855 289.087799,238.230179 265.883331,241.996292 
	C261.472595,242.712158 256.914215,242.893555 252.666260,244.144394 
	C247.122787,245.776733 242.705734,244.277649 238.261826,241.152985 
	C233.375000,237.716873 228.252304,234.616241 223.015610,231.085556 
	C238.017517,228.228226 253.221451,225.563599 268.457703,223.098740 
	C310.472626,216.301758 352.503174,209.601578 394.521820,202.827576 
	C400.789917,201.817062 403.711121,198.511658 403.182495,193.353668 
	C402.656250,188.218903 398.885040,185.817245 391.685059,186.274017 
z" data-index="10" style="opacity: 1;"></path>
<path fill="#FFF3E3" opacity="1.000000" stroke="none" d="
M11.349893,426.011536 
	C13.320491,415.915436 16.004696,406.035126 17.923172,396.008240 
	C21.282772,378.449463 17.044121,361.638062 12.034631,344.971466 
	C11.851740,344.362976 12.008622,343.652313 12.012670,342.588196 
	C34.940350,346.212311 57.872749,350.180206 80.782608,354.274261 
	C132.352661,363.489929 183.912033,372.765350 235.474396,382.023895 
	C242.513504,383.287842 249.543243,384.603821 256.580475,385.878418 
	C264.025879,387.226990 267.799988,390.904297 267.892120,398.583466 
	C268.156006,420.570618 268.108276,442.563293 267.964752,464.552338 
	C267.926025,470.483093 265.906006,471.939484 260.147736,470.909912 
	C216.763596,463.152679 173.392426,455.323059 130.011429,447.548218 
	C91.544632,440.654083 53.070087,433.803162 14.601322,426.919983 
	C13.626423,426.745544 12.678975,426.417664 11.349893,426.011536 
z" data-index="11" style="opacity: 1;"></path>
<path fill="#F4D177" opacity="1.000000" stroke="none" d="
M308.115051,342.918365 
	C307.903351,342.645386 308.062286,342.413605 308.631775,342.283234 
	C308.738373,342.513977 308.552795,342.705627 308.115051,342.918365 
z" data-index="12"></path>
<path fill="#FFF2E3" opacity="1.000000" stroke="none" d="
M501.834473,220.776093 
	C496.936066,234.935516 494.149567,249.093781 496.952362,263.973541 
	C498.775360,273.651520 500.330231,283.380005 502.031281,293.496582 
	C490.107758,295.949768 478.171844,298.076447 466.206116,300.019348 
	C426.148621,306.523560 386.080475,312.962158 346.016388,319.425751 
	C314.661224,324.484344 283.298676,329.498016 251.958389,334.647095 
	C246.985596,335.464111 246.109818,332.399139 246.019699,328.868805 
	C245.815781,320.879578 245.937653,312.881866 245.938248,304.887604 
	C245.939026,294.394928 245.925812,283.902161 245.964951,273.409607 
	C245.999176,264.233490 248.474808,261.042542 257.294098,259.603668 
	C297.671265,253.016205 338.064301,246.526062 378.453430,240.011948 
	C414.573181,234.186417 450.693329,228.362885 486.818726,222.572464 
	C491.723328,221.786316 496.659576,221.197678 501.834473,220.776093 
z" data-index="13" style="opacity: 1;"></path>
</svg>